<?xml version="1.0" encoding="UTF-8" standalone="no"?>
<!-- Created with Inkscape (http://www.inkscape.org/) -->

<svg
   xmlns:dc="http://purl.org/dc/elements/1.1/"
   xmlns:cc="http://creativecommons.org/ns#"
   xmlns:rdf="http://www.w3.org/1999/02/22-rdf-syntax-ns#"
   xmlns:svg="http://www.w3.org/2000/svg"
   xmlns="http://www.w3.org/2000/svg"
   xmlns:sodipodi="http://sodipodi.sourceforge.net/DTD/sodipodi-0.dtd"
   xmlns:inkscape="http://www.inkscape.org/namespaces/inkscape"
   width="612"
   height="196.53"
   viewBox="0 0 0 1052.3622"
   id="svg2"
   version="1.1"
   inkscape:version="0.48.5 r10040"
   sodipodi:docname="opuntia_logo.svg"
   inkscape:export-filename="/home/caina/Opuntia/opuntia_logo.png"
   inkscape:export-xdpi="90"
   inkscape:export-ydpi="90">
  <defs
     id="defs4" />
  <sodipodi:namedview
     id="base"
     pagecolor="#ffffff"
     bordercolor="#666666"
     borderopacity="1.0"
     inkscape:pageopacity="0.0"
     inkscape:pageshadow="2"
     inkscape:zoom="1"
     inkscape:cx="287.59224"
     inkscape:cy="126.03379"
     inkscape:document-units="px"
     inkscape:current-layer="layer1"
     showgrid="false"
     showguides="true"
     inkscape:snap-bbox="false"
     inkscape:bbox-nodes="true"
     inkscape:snap-bbox-edge-midpoints="true"
     inkscape:snap-intersection-paths="true"
     inkscape:object-nodes="true"
     inkscape:snap-smooth-nodes="true"
     inkscape:snap-nodes="false"
     inkscape:window-width="1366"
     inkscape:window-height="707"
     inkscape:window-x="0"
     inkscape:window-y="25"
     inkscape:window-maximized="1" />
  <metadata
     id="metadata7">
    <rdf:RDF>
      <cc:Work
         rdf:about="">
        <dc:format>image/svg+xml</dc:format>
        <dc:type
           rdf:resource="http://purl.org/dc/dcmitype/StillImage" />
        <dc:title></dc:title>
      </cc:Work>
    </rdf:RDF>
  </metadata>
  <g
     inkscape:label="Camada 1"
     inkscape:groupmode="layer"
     id="layer1"
     transform="translate(0,-855.83215)">
    <g
       id="g3092"
       transform="matrix(0.26622768,0,0,0.26622768,516.00742,738.88875)"
       inkscape:export-filename="/home/caina/Opuntia/opuntia.png"
       inkscape:export-xdpi="90"
       inkscape:export-ydpi="90">
      <g
         id="g3048">
        <g
           id="g4550"
           transform="matrix(15.36871,0,0,15.36871,-4915.9285,-5152.2411)">
          <path
             sodipodi:nodetypes="cccc"
             inkscape:connector-curvature="0"
             id="path3395-7"
             d="m 260.3768,381.49213 1.20332,-0.0436 c -15.55126,-22.69822 22.43612,-21.95201 7.6933,0 l 0.97887,0.0325"
             style="fill:#adc037;fill-opacity:1;fill-rule:evenodd;stroke:none" />
          <path
             sodipodi:nodetypes="cccc"
             inkscape:connector-curvature="0"
             id="path4533"
             d="m 264.69531,364.70987 c -4.80915,2.82086 -7.42271,7.10166 -2.11563,16.76268 l 1.65728,0 c -1.84771,-6.3024 -0.95819,-11.62609 0.45835,-16.76268 z"
             style="fill:#9bae32;fill-opacity:1;fill-rule:evenodd;stroke:none" />
          <path
             sodipodi:nodetypes="cccc"
             inkscape:connector-curvature="0"
             id="path4533-3"
             d="m 265.02964,364.7139 c 5.00556,2.48657 7.93014,6.61274 3.35599,16.76838 l -1.66051,-2.3e-4 c 1.37405,-6.50353 0.099,-11.68765 -1.69548,-16.76815 z"
             style="fill:#9bae32;fill-opacity:1;fill-rule:evenodd;stroke:none" />
        </g>
        <g
           id="g4620"
           transform="matrix(15.36871,0,0,15.36871,-4942.7572,-5205.161)">
          <path
             sodipodi:nodetypes="ccc"
             inkscape:connector-curvature="0"
             id="path3397-2"
             d="m 274.44675,376.43429 c 7.0028,-5.17784 6.90442,7.73314 -2.63235,7.17662 1.10262,-1.92514 2.2686,-4.06005 2.63235,-7.17662 z"
             style="fill:#adc037;fill-opacity:1;fill-rule:evenodd;stroke:none" />
          <path
             sodipodi:nodetypes="ccc"
             inkscape:connector-curvature="0"
             id="path4618"
             d="m 277.93717,375.30746 c 0.3497,2.27875 -2.69146,7.16953 -6.1209,8.30851 4.85166,0.41131 9.40884,-5.47313 6.1209,-8.30851 z"
             style="fill:#9bae32;fill-opacity:1;fill-rule:evenodd;stroke:none" />
        </g>
        <g
           id="g4578"
           style="fill:#9bae32;fill-opacity:1"
           transform="matrix(15.36871,0,0,15.36871,-4835.782,-5466.9955)">
          <path
             inkscape:connector-curvature="0"
             id="path3422"
             d="m 268.27004,388.93023 -0.77681,0.19766 -0.77682,0.19688 -0.70299,0.26107 -0.80085,0.29776 0.7768,-0.19766 0.77682,-0.19687 0.703,-0.26109 0.80085,-0.29775 z"
             style="fill:#9bae32;fill-opacity:1;stroke:none" />
          <path
             inkscape:connector-curvature="0"
             id="path3422-6"
             d="m 265.75167,385.18083 -0.37287,0.70956 -0.37345,0.70903 -0.27636,0.69713 -0.31456,0.7944 0.37286,-0.70955 0.37346,-0.70904 0.27636,-0.69714 0.31456,-0.79439 z"
             style="fill:#9bae32;fill-opacity:1;stroke:none" />
          <path
             inkscape:connector-curvature="0"
             id="path3422-4"
             d="m 264.4351,385.48894 -0.51233,0.61645 -0.51282,0.61581 -0.41536,0.62438 -0.47296,0.71156 0.51233,-0.61644 0.51282,-0.61582 0.41536,-0.62438 0.47296,-0.71156 z"
             style="fill:#9bae32;fill-opacity:1;stroke:none" />
          <path
             inkscape:connector-curvature="0"
             id="path3422-7"
             d="m 261.87803,384.63544 -0.2896,0.49236 -0.28999,0.49199 -0.22047,0.48681 -0.25099,0.55475 0.2896,-0.49237 0.29,-0.49198 0.22046,-0.48682 0.25099,-0.55474 z"
             style="fill:#9bae32;fill-opacity:1;stroke:none" />
          <path
             inkscape:connector-curvature="0"
             id="path3422-64"
             d="m 259.71927,386.42924 -0.12478,-0.48741 -0.12429,-0.48743 -0.16451,-0.44103 -0.18764,-0.50242 0.12478,0.48742 0.12429,0.48742 0.16451,0.44104 0.18764,0.50241 z"
             style="fill:#9bae32;fill-opacity:1;stroke:none" />
          <path
             inkscape:connector-curvature="0"
             id="path3422-1"
             d="m 257.55985,384.30286 0.0318,0.50429 0.0313,0.5042 0.0797,0.46595 0.091,0.53086 -0.0318,-0.50429 -0.0313,-0.50419 -0.0797,-0.46596 -0.091,-0.53086 z"
             style="fill:#9bae32;fill-opacity:1;stroke:none" />
          <path
             inkscape:connector-curvature="0"
             id="path3422-3"
             d="m 256.33255,387.2225 -0.24981,-0.47232 -0.2493,-0.47245 -0.27932,-0.41457 -0.31843,-0.47221 0.24981,0.47232 0.24929,0.47245 0.27933,0.41457 0.31843,0.47221 z"
             style="fill:#9bae32;fill-opacity:1;stroke:none" />
          <path
             inkscape:connector-curvature="0"
             id="path3422-71"
             d="m 254.97529,387.99593 -0.38493,-0.39283 -0.38447,-0.3931 -0.39713,-0.32718 -0.45261,-0.3726 0.38493,0.39282 0.38447,0.39311 0.39713,0.32718 0.45261,0.3726 z"
             style="fill:#9bae32;fill-opacity:1;stroke:none" />
          <path
             inkscape:connector-curvature="0"
             id="path3422-9"
             d="m 254.29919,391.16702 -0.79941,-0.0588 -0.79916,-0.0595 -0.7495,0.0248 -0.85394,0.0285 0.79941,0.0588 0.79916,0.0595 0.74951,-0.0248 0.85393,-0.0286 z"
             style="fill:#9bae32;fill-opacity:1;stroke:none" />
          <path
             inkscape:connector-curvature="0"
             id="path3422-2"
             d="m 253.58086,392.87967 -0.44155,0.11235 -0.44155,0.11191 -0.3996,0.1484 -0.45522,0.16925 0.44156,-0.11235 0.44155,-0.1119 0.3996,-0.14841 0.45521,-0.16925 z"
             style="fill:#9bae32;fill-opacity:1;stroke:none" />
          <path
             inkscape:connector-curvature="0"
             id="path3422-8"
             d="m 254.77816,396.80584 -0.54414,0.0638 -0.54407,0.0633 -0.49985,0.11347 -0.56946,0.12949 0.54414,-0.0638 0.54407,-0.0633 0.49986,-0.11348 0.56945,-0.12949 z"
             style="fill:#9bae32;fill-opacity:1;stroke:none" />
          <path
             inkscape:connector-curvature="0"
             id="path3422-0"
             d="m 255.16076,397.57305 -0.6025,0.52866 -0.60287,0.52797 -0.50795,0.55167 -0.5785,0.62878 0.6025,-0.52867 0.60287,-0.52796 0.50795,-0.55169 0.5785,-0.62876 z"
             style="fill:#9bae32;fill-opacity:1;stroke:none" />
          <path
             inkscape:connector-curvature="0"
             id="path3422-99"
             d="m 256.22706,399.68815 -0.24667,0.4636 -0.24706,0.46325 -0.18339,0.45578 -0.20876,0.51937 0.24667,-0.46359 0.24705,-0.46325 0.1834,-0.45579 0.20876,-0.51937 z"
             style="fill:#9bae32;fill-opacity:1;stroke:none" />
          <path
             inkscape:connector-curvature="0"
             id="path3422-73"
             d="m 268.79411,391.23791 -0.67334,0.43487 -0.6736,0.43413 -0.58318,0.47146 -0.66423,0.53741 0.67334,-0.43487 0.6736,-0.43413 0.58317,-0.47146 0.66424,-0.53741 z"
             style="fill:#9bae32;fill-opacity:1;stroke:none" />
          <path
             inkscape:connector-curvature="0"
             id="path3422-99-0"
             d="m 265.64844,401.54236 -0.40302,-0.33667 -0.4026,-0.33697 -0.40838,-0.27314 -0.46539,-0.31102 0.40301,0.33666 0.40261,0.33698 0.40838,0.27313 0.46539,0.31103 z"
             style="fill:#9bae32;fill-opacity:1;stroke:none" />
          <path
             inkscape:connector-curvature="0"
             id="path3422-99-4"
             d="m 269.01781,391.73863 -0.12859,0.50914 -0.12905,0.50891 -0.069,0.48642 -0.0784,0.55424 0.12859,-0.50915 0.12905,-0.5089 0.069,-0.48643 0.0784,-0.55423 z"
             style="fill:#9bae32;fill-opacity:1;stroke:none" />
          <path
             inkscape:connector-curvature="0"
             id="path3422-99-5"
             d="m 271.39612,391.96647 -0.24667,0.46359 -0.24706,0.46325 -0.1834,0.45579 -0.20876,0.51937 0.24667,-0.46359 0.24706,-0.46326 0.1834,-0.45579 0.20876,-0.51936 z"
             style="fill:#9bae32;fill-opacity:1;stroke:none" />
          <path
             inkscape:connector-curvature="0"
             id="path3422-99-9"
             d="m 272.95616,393.93186 -0.56334,0.22096 -0.56342,0.22037 -0.50211,0.26155 -0.57196,0.2982 0.56334,-0.22096 0.56342,-0.22037 0.50212,-0.26156 0.57195,-0.29819 z"
             style="fill:#9bae32;fill-opacity:1;stroke:none" />
          <path
             inkscape:connector-curvature="0"
             id="path3422-99-7"
             d="m 270.92344,395.69681 0.48552,0.20011 0.48521,0.20053 0.47154,0.1379 0.53732,0.15692 -0.48551,-0.2001 -0.48521,-0.20053 -0.47155,-0.13791 -0.53732,-0.15692 z"
             style="fill:#9bae32;fill-opacity:1;stroke:none" />
          <path
             inkscape:connector-curvature="0"
             id="path3422-99-74"
             d="m 270.71562,396.54022 0.38768,0.35422 0.38725,0.3545 0.39586,0.29099 0.45113,0.33137 -0.38768,-0.35422 -0.38725,-0.3545 -0.39586,-0.291 -0.45113,-0.33136 z"
             style="fill:#9bae32;fill-opacity:1;stroke:none" />
          <path
             inkscape:connector-curvature="0"
             id="path3422-99-1"
             d="m 270.1611,398.14419 0.14331,0.5052 0.1428,0.50522 0.18353,0.45573 0.2093,0.51916 -0.14331,-0.5052 -0.1428,-0.50522 -0.18354,-0.45573 -0.20929,-0.51916 z"
             style="fill:#9bae32;fill-opacity:1;stroke:none" />
          <path
             inkscape:connector-curvature="0"
             id="path3422-99-6"
             d="m 268.15084,399.29747 0.36002,0.3823 0.35958,0.38255 0.37291,0.31987 0.42501,0.36427 -0.36002,-0.3823 -0.35957,-0.38255 -0.37292,-0.31987 -0.42501,-0.36427 z"
             style="fill:#9bae32;fill-opacity:1;stroke:none" />
          <path
             inkscape:connector-curvature="0"
             id="path3422-99-61"
             d="m 266.74608,399.8351 0.22042,0.47663 0.21992,0.47673 0.25242,0.4215 0.28778,0.48012 -0.22043,-0.47664 -0.21992,-0.47673 -0.25242,-0.4215 -0.28777,-0.48011 z"
             style="fill:#9bae32;fill-opacity:1;stroke:none" />
        </g>
      </g>
      <g
         id="g3085">
        <text
           inkscape:export-ydpi="90"
           inkscape:export-xdpi="90"
           xml:space="preserve"
           style="font-size:614.74841309px;font-style:normal;font-weight:normal;line-height:125%;letter-spacing:0px;word-spacing:0px;fill:#4d4d4d;fill-opacity:1;stroke:none;font-family:sans-serif"
           x="-1938.2186"
           y="1066.2113"
           id="text3336"
           sodipodi:linespacing="125%"><tspan
             sodipodi:role="line"
             id="tspan3338"
             x="-1938.2186"
             y="1066.2113"
             style="font-style:normal;font-variant:normal;font-weight:normal;font-stretch:normal;fill:#4d4d4d;fill-opacity:1;stroke:none;font-family:abeatbyKai;-inkscape-font-specification:abeatbyKai">Opuntia</tspan></text>
        <g
           id="g3081">
          <path
             sodipodi:nodetypes="ccccc"
             inkscape:connector-curvature="0"
             id="path4419"
             d="m -924.9381,705.12027 179.64731,0 0,201.17072 c -1.27116,128.37141 -178.04968,117.14511 -179.64731,0 z"
             style="fill:#d16130;fill-opacity:1;fill-rule:evenodd;stroke:none" />
          <path
             sodipodi:nodetypes="ccccc"
             inkscape:connector-curvature="0"
             id="path4419-6"
             d="m -745.29079,705.12027 0,201.1907 c 0.0334,60.82871 -44.19696,93.69663 -89.82841,92.05521 l 0,-293.24591 z"
             style="fill:#bc603c;fill-opacity:1;fill-rule:evenodd;stroke:none" />
        </g>
      </g>
    </g>
  </g>
</svg>
