<?xml version="1.0" encoding="UTF-8" standalone="no"?>
<!-- Creator: CorelDRAW X6 -->

<svg
   xmlns:dc="http://purl.org/dc/elements/1.1/"
   xmlns:cc="http://creativecommons.org/ns#"
   xmlns:rdf="http://www.w3.org/1999/02/22-rdf-syntax-ns#"
   xmlns:svg="http://www.w3.org/2000/svg"
   xmlns="http://www.w3.org/2000/svg"
   xmlns:sodipodi="http://sodipodi.sourceforge.net/DTD/sodipodi-0.dtd"
   xmlns:inkscape="http://www.inkscape.org/namespaces/inkscape"
   xml:space="preserve"
   width="509.08mm"
   height="440.97mm"
   version="1.1"
   style="shape-rendering:geometricPrecision; text-rendering:geometricPrecision; image-rendering:optimizeQuality; fill-rule:evenodd; clip-rule:evenodd"
   viewBox="0 0 133156 115341"
   id="svg2"
   inkscape:version="0.91 r13725"
   sodipodi:docname="services_logos.svg"><metadata
     id="metadata18"><rdf:RDF><cc:Work
         rdf:about=""><dc:format>image/svg+xml</dc:format><dc:type
           rdf:resource="http://purl.org/dc/dcmitype/StillImage" /><dc:title></dc:title></cc:Work></rdf:RDF></metadata><sodipodi:namedview
     pagecolor="#ffffff"
     bordercolor="#666666"
     borderopacity="1"
     objecttolerance="10"
     gridtolerance="10"
     guidetolerance="10"
     inkscape:pageopacity="0"
     inkscape:pageshadow="2"
     inkscape:window-width="1366"
     inkscape:window-height="706"
     id="namedview16"
     showgrid="false"
     inkscape:zoom="0.42720778"
     inkscape:cx="-440.75088"
     inkscape:cy="393.36483"
     inkscape:window-x="0"
     inkscape:window-y="25"
     inkscape:window-maximized="1"
     inkscape:current-layer="svg2" /><defs
     id="defs4"><style
       type="text/css"
       id="style6"><![CDATA[
    .fil2 {fill:#11A861}
    .fil0 {fill:#3777E3}
    .fil1 {fill:#FFCF63}
   ]]></style><clipPath
       id="clipPath5120"
       clipPathUnits="userSpaceOnUse"><path
         id="path5122"
         d="m 42.52,755.433 186.079,0 0,43.937 -186.079,0 0,-43.937 z"
         inkscape:connector-curvature="0" /></clipPath><clipPath
       id="clipPath5128"
       clipPathUnits="userSpaceOnUse"><path
         id="path5130"
         d="m 42.52,799.37 0,-43.937 186.079,0 0,43.937"
         inkscape:connector-curvature="0" /></clipPath><clipPath
       id="clipPath5148"
       clipPathUnits="userSpaceOnUse"><path
         id="path5150"
         d="m 42.52,799.37 0,-43.937 186.079,0 0,43.937"
         inkscape:connector-curvature="0" /></clipPath><clipPath
       id="clipPath5202"
       clipPathUnits="userSpaceOnUse"><path
         id="path5204"
         d="m 42.52,799.37 0,-43.937 186.079,0 0,43.937"
         inkscape:connector-curvature="0" /></clipPath><clipPath
       id="clipPath5214"
       clipPathUnits="userSpaceOnUse"><path
         id="path5216"
         d="m 42.52,799.37 0,-43.937 186.079,0 0,43.937"
         inkscape:connector-curvature="0" /></clipPath><clipPath
       id="clipPath5234"
       clipPathUnits="userSpaceOnUse"><path
         id="path5236"
         d="m 42.52,799.37 0,-43.937 186.079,0 0,43.937"
         inkscape:connector-curvature="0" /></clipPath><clipPath
       id="clipPath5290"
       clipPathUnits="userSpaceOnUse"><path
         id="path5292"
         d="m 42.52,799.37 0,-43.937 186.079,0 0,43.937"
         inkscape:connector-curvature="0" /></clipPath><clipPath
       id="clipPath5330"
       clipPathUnits="userSpaceOnUse"><path
         id="path5332"
         d="m 42.52,799.37 0,-43.937 186.079,0 0,43.937"
         inkscape:connector-curvature="0" /></clipPath><clipPath
       id="clipPath9912"
       clipPathUnits="userSpaceOnUse"><path
         id="path9914"
         d="m 339.445,232.6586 46.025,0 0,51.899 -46.025,0 0,-51.899 z"
         inkscape:connector-curvature="0" /></clipPath><clipPath
       id="clipPath9920"
       clipPathUnits="userSpaceOnUse"><path
         id="path9922"
         d="m 344.657,232.6836 34.7253,0 0,51.8676 -34.7253,0 0,-51.8676 z"
         inkscape:connector-curvature="0" /></clipPath><clipPath
       id="clipPath12233"
       clipPathUnits="userSpaceOnUse"><path
         id="path12235"
         d="m 257.953,19.842 141.732,0 0,53.504 -141.732,0 0,-53.504 z"
         inkscape:connector-curvature="0" /></clipPath><clipPath
       id="clipPath16018"
       clipPathUnits="userSpaceOnUse"><path
         id="path16020"
         d="m 44.622,38.953 92.124,0 0,37.175 -92.124,0 0,-37.175 z"
         inkscape:connector-curvature="0" /></clipPath><clipPath
       id="clipPath16002"
       clipPathUnits="userSpaceOnUse"><path
         id="path16004"
         d="m 44.63,38.953 92.116,0 0,37.175 -92.116,0 0,-37.175 z"
         inkscape:connector-curvature="0" /></clipPath><clipPath
       id="clipPath15894"
       clipPathUnits="userSpaceOnUse"><path
         id="path15896"
         d="m 44.622,38.953 92.124,0 0,37.175 -92.124,0 0,-37.175 z"
         inkscape:connector-curvature="0" /></clipPath><clipPath
       id="clipPath15882"
       clipPathUnits="userSpaceOnUse"><path
         id="path15884"
         d="m 44.63,38.953 92.116,0 0,37.175 -92.116,0 0,-37.175 z"
         inkscape:connector-curvature="0" /></clipPath><clipPath
       id="clipPath16679"
       clipPathUnits="userSpaceOnUse"><path
         id="path16681"
         d="m -8.504,-8.503 437.953,0 0,106.997 -437.953,0 0,-106.997 z"
         inkscape:connector-curvature="0" /></clipPath><clipPath
       id="clipPath19116"
       clipPathUnits="userSpaceOnUse"><path
         id="path19118"
         clip-rule="evenodd"
         d="m 524.8765,58.1629 51.9736,0 c 2.3483,0 4.252,-1.9037 4.252,-4.252 l 0,-35.486 c 0,-2.3483 -1.9037,-4.252 -4.252,-4.252 l -103.9471,0 c -2.3483,0 -4.252,1.9037 -4.252,4.252 l 0,35.486 c 0,2.3483 1.9037,4.252 4.252,4.252"
         inkscape:connector-curvature="0" /></clipPath><clipPath
       id="clipPath19124"
       clipPathUnits="userSpaceOnUse"><path
         id="path19126"
         d="m 470.549,17.1589 108.7399,0 0,37.6171 -108.7399,0 0,-37.6171 z"
         inkscape:connector-curvature="0" /></clipPath><clipPath
       id="clipPath19501"
       clipPathUnits="userSpaceOnUse"><path
         id="path19503"
         d="m 0.323,2.044 594.629,0 0,82.145 -594.629,0 0,-82.145 z"
         inkscape:connector-curvature="0" /></clipPath><clipPath
       id="clipPath19485"
       clipPathUnits="userSpaceOnUse"><path
         id="path19487"
         d="m 245.246,17.778 109.243,0 0,48.927 -109.243,0 0,-48.927 z"
         inkscape:connector-curvature="0" /></clipPath><clipPath
       id="clipPath20517"
       clipPathUnits="userSpaceOnUse"><path
         id="path20519"
         d="m 507.4,28.3467 59.5289,0 0,84.807 -59.5289,0 0,-84.807 z"
         inkscape:connector-curvature="0" /></clipPath><clipPath
       id="clipPath20525"
       clipPathUnits="userSpaceOnUse"><path
         id="path20527"
         d="m 509.837,27.1888 62.3996,0 0,83.0584 -62.3996,0 0,-83.0584 z"
         inkscape:connector-curvature="0" /></clipPath><clipPath
       id="clipPath32351"
       clipPathUnits="userSpaceOnUse"><path
         id="path32353"
         d="m 789.437,22.03 20.563,0 0,41.765 -20.563,0 0,-41.765 z"
         inkscape:connector-curvature="0" /></clipPath><clipPath
       id="clipPath34294"
       clipPathUnits="userSpaceOnUse"><path
         id="path34296"
         d="m 487.355,14.173 98.707,0 0,52.477 -98.707,0 0,-52.477 z"
         inkscape:connector-curvature="0" /></clipPath><clipPath
       id="clipPath38161"
       clipPathUnits="userSpaceOnUse"><path
         id="path38163"
         d="m 322.047,17.3088 258.213,0 0,93.242 -258.213,0 0,-93.242 z"
         inkscape:connector-curvature="0" /></clipPath><clipPath
       id="clipPath38169"
       clipPathUnits="userSpaceOnUse"><path
         id="path38171"
         d="m 344.927,26.6568 227.546,0 0,79.3105 -227.546,0 0,-79.3105 z"
         inkscape:connector-curvature="0" /></clipPath><clipPath
       id="clipPath38544"
       clipPathUnits="userSpaceOnUse"><path
         id="path38546"
         d="m 157.446,17.008 104.635,0 0,25.449 -104.635,0 0,-25.449 z"
         inkscape:connector-curvature="0" /></clipPath><clipPath
       id="clipPath38544-4"
       clipPathUnits="userSpaceOnUse"><path
         id="path38546-0"
         d="m 157.446,17.008 104.635,0 0,25.449 -104.635,0 0,-25.449 z"
         inkscape:connector-curvature="0" /></clipPath><clipPath
       id="clipPath48037"
       clipPathUnits="userSpaceOnUse"><path
         id="path48039"
         d="m 14.008,14.008 442.063,0 0,103.606 -442.063,0 0,-103.606 z"
         inkscape:connector-curvature="0" /></clipPath><clipPath
       id="clipPath48089"
       clipPathUnits="userSpaceOnUse"><path
         id="path48091"
         d="m 354.836,51.742 46.193,0 0,51.453 -46.193,0 0,-51.453 z"
         inkscape:connector-curvature="0" /></clipPath><clipPath
       id="clipPath48105"
       clipPathUnits="userSpaceOnUse"><path
         id="path48107"
         d="m 14.008,14.008 442.063,0 0,103.606 -442.063,0 0,-103.606 z"
         inkscape:connector-curvature="0" /></clipPath><clipPath
       id="clipPath54189"
       clipPathUnits="userSpaceOnUse"><path
         id="path54191"
         d="m 177.584,193.234 0,-39.251 32.873,0 0,39.251"
         inkscape:connector-curvature="0" /></clipPath></defs><g
     id="Livello_x0020_1"
     transform="matrix(0.11087539,0,0,0.11087539,-66956.432,73717.266)"
     inkscape:export-xdpi="90"
     inkscape:export-ydpi="90"><metadata
       id="CorelCorpID_0Corel-Layer" /><polygon
       class="fil0"
       points="133156,76894 110963,115341 22194,115341 44385,76894 "
       id="polygon10"
       style="fill:#3777e3" /><polygon
       class="fil1"
       points="88772,0 44385,0 88772,76894 133156,76894 "
       id="polygon12"
       style="fill:#ffcf63" /><polygon
       class="fil2"
       points="66578,38447 44385,0 0,76894 22194,115341 "
       id="polygon14"
       style="fill:#11a861" /></g><g
     transform="matrix(14.778502,0,0,14.778503,-135962.11,183968.08)"
     id="layer1"
     inkscape:label="Layer 1"
     inkscape:export-xdpi="90"
     inkscape:export-ydpi="90"><g
       id="g37407"
       transform="matrix(8.5998536,0,0,-8.5998536,2765.5598,-5681.637)"><g
         transform="matrix(1.1133825,0,0,1.1133825,462.46659,61.070265)"
         id="g54448"><g
           id="g54428"
           transform="translate(63.5239,133.5215)"><path
             inkscape:connector-curvature="0"
             d="M 0,0 -30.691,-20.039 -9.47,-37.033 21.476,-17.925 0,0 Z"
             style="fill:#007ee5;fill-opacity:1;fill-rule:nonzero;stroke:none"
             id="path54430" /></g><g
           id="g54432"
           transform="translate(32.8325,79.4932)"><path
             inkscape:connector-curvature="0"
             d="M 0,0 30.691,-20.039 52.167,-2.113 21.222,16.995 0,0 Z"
             style="fill:#007ee5;fill-opacity:1;fill-rule:nonzero;stroke:none"
             id="path54434" /></g><g
           id="g54436"
           transform="translate(84.9995,77.3799)"><path
             inkscape:connector-curvature="0"
             d="M 0,0 21.477,-17.926 52.168,2.113 30.946,19.108 0,0 Z"
             style="fill:#007ee5;fill-opacity:1;fill-rule:nonzero;stroke:none"
             id="path54438" /></g><g
           id="g54440"
           transform="translate(137.1675,113.4824)"><path
             inkscape:connector-curvature="0"
             d="M 0,0 -30.691,20.039 -52.168,2.114 -21.222,-16.994 0,0 Z"
             style="fill:#007ee5;fill-opacity:1;fill-rule:nonzero;stroke:none"
             id="path54442" /></g><g
           id="g54444"
           transform="translate(85.063,73.5234)"><path
             inkscape:connector-curvature="0"
             d="m 0,0 -21.539,-17.873 -9.217,6.018 0,-6.747 L 0,-37.045 l 30.756,18.443 0,6.747 -9.217,-6.018 L 0,0 Z"
             style="fill:#007ee5;fill-opacity:1;fill-rule:nonzero;stroke:none"
             id="path54446" /></g></g></g></g><g
     style="clip-rule:evenodd;fill-rule:evenodd;image-rendering:optimizeQuality;shape-rendering:geometricPrecision;text-rendering:geometricPrecision"
     id="g3519"
     transform="matrix(0.31527555,0,0,0.31527559,-50080.087,75382.184)"
     inkscape:export-xdpi="90"
     inkscape:export-ydpi="90"><g
       id="Capa_x0020_1"><metadata
         id="CorelCorpID_0Corel-Layer-1" /><g
         id="_376678360"><rect
           id="rect3509"
           ry="6444"
           rx="6444"
           height="33189"
           width="46828"
           y="250"
           x="250"
           style="fill:#e75a4d" /><polygon
           id="polygon3511"
           points="18549,7972 18549,25476 32726,17291 "
           style="fill:#f6f4ec" /></g></g></g></svg>